<svg width="385" height="290" viewBox="0 0 385 290" fill="none" xmlns="http://www.w3.org/2000/svg">
<path fill-rule="evenodd" clip-rule="evenodd" d="M295.659 200.05C355.464 200.62 384.972 183.05 384.972 123.62C384.972 70.73 318.977 0 171.468 0C46.9966 0 0 74.23 0 127.73C0 204 88.4736 238.48 160.968 219.33C167.935 217.489 174.17 215.8 179.876 214.254C220.91 203.139 234.551 199.444 295.659 200.05ZM283.38 261.98C339.486 261.98 384.972 267.75 384.972 274.23C384.972 281.93 345.095 290 233.923 290C173.138 290 123.871 285.83 123.871 280.7C123.871 277.53 142.62 274.73 171.258 273.05C170.598 272.61 170.258 272.16 170.258 271.7C170.258 266.33 216.274 261.98 273.03 261.98H278.5H283.38Z" fill="#D2D7E2"/>
<path d="M242.352 181.07C203.725 183.75 208.695 171.2 162.678 170.92C116.662 170.64 66.0452 188.18 66.0452 188.18C49.3412 182.538 32.1126 178.588 14.6189 176.39C42.7269 217.74 106.372 233.75 160.958 219.33C218.024 204.25 226.044 199.33 295.649 200.05C328.946 200.37 352.845 195.05 367.493 180.05C362.038 179.647 356.677 178.413 351.595 176.39C322.707 164.94 280.98 178.38 242.352 181.07Z" fill="#9AA4BE"/>
<path d="M313.077 185.24C288.079 175.99 253.142 191.69 253.142 191.69C239.443 183.19 231.403 193.13 191.946 195.88C155.009 198.45 122.721 173.88 53.1761 178.07C41.9538 178.721 30.8288 180.531 19.9785 183.47C50.2363 219.53 109.612 232.9 160.968 219.33C218.034 204.25 226.054 199.33 295.659 200.05C326.536 200.35 349.335 195.81 364.164 183.17C343.885 185.74 325.686 189.9 313.077 185.24Z" fill="#62719A"/>
<path fill-rule="evenodd" clip-rule="evenodd" d="M234.793 83.6699C234.793 83.6699 241.492 72.3999 259.891 70.8799C278.29 69.3599 285.269 79.4299 285.269 79.4299C287.449 77.4299 292.209 76.5899 296.189 78.1899C300.918 80.0799 301.188 83.6099 301.188 83.6099C305.271 82.3144 309.616 82.0735 313.817 82.9099C317.712 83.677 320.394 85.3763 322.731 86.8569C325.908 88.8697 328.447 90.4781 332.526 88.7899C339.605 85.8599 346.975 87.9999 346.975 87.9999C353.194 86.1099 359.624 87.7499 363.264 89.0699C363.787 89.156 364.166 89.6158 364.151 90.1461C364.136 90.6764 363.731 91.1138 363.204 91.1699C331.206 99.8899 316.207 101.23 288.759 100.17C276.947 99.7137 266.25 97.4965 255.496 95.2674C241.259 92.3164 226.922 89.3446 209.765 90.4099C208.535 90.4799 207.765 89.3399 208.475 88.5699C218.114 78.5199 234.793 83.6699 234.793 83.6699ZM300.348 114.53C314.347 117.28 333.486 116.53 344.685 114.03C345.405 113.86 345.685 113.21 345.055 113.03C343.989 112.608 342.817 112.531 341.705 112.81C341.705 112.81 340.425 110.1 333.806 110.81C333.806 110.81 332.106 107.3 325.686 107.56C321.852 107.715 320.458 109.062 319.33 110.152C318.57 110.886 317.931 111.504 316.747 111.56C316.286 111.582 315.823 111.593 315.357 111.605H315.357C312.853 111.668 310.302 111.732 307.908 113.41C305.497 113.106 303.058 113.106 300.648 113.41C299.808 113.58 299.588 114.38 300.348 114.53ZM194.246 127.27C192.706 127.58 191.796 126.08 193.136 125.45C194.472 124.824 196.136 124.593 197.958 124.34C200.651 123.965 203.688 123.543 206.515 121.73C212.905 117.62 222.044 120.06 222.044 120.06C225.914 115.95 234.843 114.21 243.042 116.46C247.643 117.722 249.634 120.137 251.359 122.228C252.708 123.865 253.895 125.304 256.041 125.84C257.709 126.181 259.269 126.918 260.591 127.99C261.271 128.62 260.791 129.51 259.721 129.62C255.341 130.1 243.472 130.83 224.874 127.83C209.075 125.27 199.166 126.27 194.246 127.27Z" fill="#FFF5DE"/>
<path fill-rule="evenodd" clip-rule="evenodd" d="M291.389 58.75C292.707 58.0506 294.081 57.4651 295.499 57C296.902 56.5504 298.365 56.3112 299.838 56.29C298.581 56.9556 297.359 57.6866 296.179 58.48C295.029 59.28 293.929 60.13 292.869 61.01C291.809 61.89 290.759 62.8 289.759 63.73C288.759 64.66 287.729 65.64 286.839 66.58C286.254 67.1875 285.331 67.3193 284.6 66.9L277 62.52C276.647 62.3224 276.294 62.1217 275.941 61.9207C275.025 61.3995 274.106 60.8763 273.16 60.4C271.872 59.6712 270.498 59.1036 269.071 58.71C270.601 58.2954 272.209 58.2508 273.76 58.58C275.292 58.8433 276.798 59.2415 278.26 59.77C279.703 60.284 281.116 60.8817 282.49 61.56C282.818 61.7376 283.142 61.9082 283.464 62.0774C284.084 62.4036 284.694 62.7245 285.299 63.08C286.059 62.4 286.829 61.77 287.639 61.16C288.832 60.2702 290.084 59.4649 291.389 58.75ZM210.285 76.55C210.876 76.2606 211.518 76.0907 212.175 76.05C211.636 76.3729 211.134 76.7517 210.675 77.18C210.205 77.58 209.745 78 209.295 78.42L209.108 78.5945C208.718 78.9569 208.326 79.3223 207.955 79.71L206.615 81C206.397 81.2182 206.066 81.278 205.785 81.15L205.738 81.1282L205.738 81.1281C204.693 80.6449 203.609 80.1439 202.525 79.74C201.418 79.2705 200.27 78.9024 199.096 78.64C199.708 78.4717 200.341 78.3975 200.976 78.42C201.604 78.4412 202.23 78.5181 202.845 78.65C203.461 78.7747 204.068 78.935 204.665 79.13C205.095 79.27 205.515 79.44 205.945 79.62C206.109 79.4659 206.272 79.314 206.438 79.1601L206.438 79.1598C206.627 78.9843 206.818 78.8064 207.015 78.62C207.385 78.27 208.015 77.82 208.575 77.47C209.121 77.1212 209.693 76.8136 210.285 76.55ZM271.161 78.82C269.953 78.788 268.754 79.0273 267.651 79.52C267.097 79.7694 266.574 80.0814 266.091 80.45C265.821 80.66 265.581 80.86 265.331 81.09C264.497 80.7486 263.618 80.5296 262.721 80.44C261.54 80.3438 260.352 80.4936 259.231 80.88C258.158 81.2724 257.167 81.8626 256.312 82.62C255.518 83.3625 254.844 84.2226 254.312 85.17C255.161 84.5601 256.053 84.012 256.982 83.53C257.85 83.0683 258.779 82.7316 259.741 82.53C260.657 82.3652 261.595 82.3652 262.511 82.53C263.426 82.6638 264.312 82.9512 265.131 83.38C265.611 83.6126 266.188 83.4746 266.511 83.05C266.785 82.7092 267.097 82.4006 267.441 82.13C267.805 81.8415 268.193 81.5839 268.601 81.36C269.429 80.9073 270.334 80.6124 271.271 80.49C272.27 80.3755 273.282 80.4126 274.27 80.6C275.313 80.7927 276.34 81.0668 277.34 81.42C276.526 80.6639 275.594 80.0458 274.58 79.59C273.505 79.1021 272.341 78.84 271.161 78.82Z" fill="#9AA4BE"/>
<path d="M354.044 265.54C355.629 271.751 357.702 277.826 360.244 283.71C361.884 283.45 363.434 283.18 364.894 282.91C365.964 278.08 367.313 272.91 368.833 267.73C364.604 266.94 359.634 266.2 354.044 265.54Z" fill="#9AA4BE"/>
<path d="M361.914 277.86V277.86C362.048 277.852 362.174 277.791 362.263 277.689C362.351 277.587 362.395 277.454 362.384 277.32C362.384 277.25 362.054 272.75 362.054 266.6L361.054 266.46C361.054 272.73 361.374 277.32 361.384 277.4C361.405 277.672 361.641 277.877 361.914 277.86Z" fill="#62719A"/>
<path d="M274.73 273.86C280.13 280.18 293.239 286.48 302.898 276.43C307.088 272.07 314.547 270.55 324.147 268.99C329.606 268.11 332.686 266.19 334.206 263.69C319.207 262.61 301.898 261.98 283.38 261.98H278.5H273.03C269.031 261.98 265.121 261.98 261.261 262.05C260.691 270.73 269.501 267.74 274.73 273.86Z" fill="#9AA4BE"/>
<path d="M302.918 269.55C301.568 269.62 302.178 270.35 302.498 270.85C303.238 271.95 304.688 274.61 302.108 277.2C302.378 276.95 302.638 276.7 302.898 276.43C305.022 274.382 307.603 272.87 310.428 272.02V272.02C308.171 270.581 305.589 269.732 302.918 269.55Z" fill="#62719A"/>
<path fill-rule="evenodd" clip-rule="evenodd" d="M266.741 277.16C265.924 277.916 264.993 278.537 263.981 279C262.925 279.471 261.787 279.729 260.631 279.76C259.423 279.789 258.224 279.546 257.121 279.05C256.566 278.805 256.042 278.492 255.562 278.12C255.297 277.92 255.044 277.707 254.802 277.48C253.969 277.826 253.089 278.045 252.192 278.13C251.011 278.231 249.821 278.081 248.702 277.69C247.629 277.301 246.639 276.715 245.782 275.96C244.988 275.218 244.314 274.358 243.782 273.41C244.637 274.013 245.528 274.561 246.452 275.05C247.32 275.494 248.246 275.813 249.202 276C250.121 276.165 251.063 276.165 251.982 276C252.869 275.878 253.731 275.611 254.532 275.21C255.006 274.973 255.582 275.107 255.902 275.53C256.18 275.871 256.495 276.18 256.842 276.45C257.204 276.736 257.589 276.994 257.991 277.22C258.819 277.676 259.724 277.971 260.661 278.09C261.66 278.209 262.672 278.175 263.661 277.99C264.708 277.795 265.738 277.518 266.741 277.16ZM196.826 280.17C197.231 280.484 197.638 280.799 198.076 281.07C198.617 281.421 199.186 281.728 199.776 281.99C200.37 282.28 201.016 282.449 201.675 282.49C201.136 282.168 200.63 281.793 200.166 281.37C199.696 280.97 199.236 280.55 198.796 280.12C198.614 279.942 198.426 279.768 198.238 279.592C197.972 279.344 197.704 279.094 197.446 278.83L196.116 277.55C195.892 277.334 195.558 277.278 195.276 277.41C194.226 277.89 193.126 278.38 192.026 278.82C190.916 279.28 189.769 279.645 188.596 279.91C189.207 280.084 189.842 280.158 190.476 280.13C191.105 280.109 191.731 280.032 192.346 279.9C192.96 279.781 193.564 279.621 194.156 279.42C194.596 279.28 195.016 279.11 195.446 278.93C195.481 278.967 195.515 279.003 195.547 279.038C195.841 279.35 196.057 279.579 196.516 279.93C196.62 280.009 196.723 280.09 196.826 280.17Z" fill="#9AA4BE"/>
<path d="M340.446 278.66L334.236 280.54C337.116 277.447 339.972 274.357 342.805 271.27C342.921 271.138 342.994 270.974 343.015 270.8C343.115 270.02 343.395 267.63 343.775 264.46C333.876 263.56 322.607 262.86 310.408 262.46C312.998 269.67 316.177 278.65 319.107 287.86C327.007 287.37 334.106 286.86 340.446 286.2C340.926 283.98 341.345 281.82 341.665 279.76C341.707 279.435 341.586 279.11 341.343 278.891C341.1 278.672 340.765 278.585 340.446 278.66Z" fill="#62719A"/>
<path d="M328.546 263.31L327.546 263.25C327.856 266.43 328.186 269.87 328.546 273.64C328.946 278.18 329.136 282.81 329.186 287.15L330.186 287.07C330.136 282.72 329.946 278.07 329.536 273.55C329.176 269.84 328.856 266.45 328.546 263.31Z" fill="#415385"/>
<path fill-rule="evenodd" clip-rule="evenodd" d="M365.274 271.18C365.3 271.05 365.27 270.914 365.193 270.806C365.115 270.698 364.996 270.627 364.864 270.61C353.324 268.69 327.386 265.48 283.379 265.48H278.48H273.03C265.181 265.48 257.421 265.56 249.982 265.73C249.848 265.73 249.721 265.785 249.628 265.881C249.536 265.977 249.486 266.107 249.492 266.24C249.508 266.512 249.73 266.726 250.002 266.73C257.441 266.56 265.191 266.48 273 266.48H278.45H283.349C327.286 266.48 353.154 269.69 364.674 271.6H364.754C365.01 271.619 365.237 271.435 365.274 271.18ZM233.913 286.5C198.166 286.5 173.437 285.13 158.978 283.98C158.702 283.958 158.496 283.717 158.518 283.44C158.541 283.164 158.782 282.958 159.058 282.98C173.497 284.12 198.196 285.49 233.913 285.49C246.622 285.49 258.791 285.38 270.06 285.17C270.337 285.17 270.56 285.394 270.56 285.67C270.56 285.947 270.337 286.17 270.06 286.17C258.801 286.39 246.632 286.5 233.913 286.5ZM336.326 271.37C336.598 271.392 336.803 271.628 336.786 271.9C336.78 272.044 336.711 272.179 336.597 272.267C336.484 272.356 336.337 272.39 336.196 272.36C320.267 271.12 302.478 270.48 283.329 270.48H278.41C272.23 270.45 265.891 270.47 259.711 270.54C259.441 270.535 259.222 270.32 259.211 270.05C259.209 269.918 259.259 269.79 259.351 269.694C259.442 269.598 259.569 269.543 259.701 269.54C265.891 269.48 272.24 269.48 278.41 269.48H283.329C302.558 269.48 320.327 270.12 336.326 271.37Z" fill="#FFF5DE"/>
<path fill-rule="evenodd" clip-rule="evenodd" d="M101.893 221.25C101.583 211.41 99.1429 208.88 97.743 208.78C96.2231 208.67 94.2833 210.25 92.8734 214.41C91.8825 217.453 91.1828 220.584 90.7835 223.76L93.3333 228.42L90.4236 227.18C89.8836 234.32 90.7335 241.14 94.9932 241.39C99.2529 241.64 102.203 231.09 101.893 221.25ZM108.682 246.78C101.853 237.9 124.071 221.54 138.21 214.78L139.42 219.79L140.92 213.6L141.57 213.33C148.639 210.49 153.149 211.03 154.269 213.42C155.309 215.62 155.419 221.36 142.9 232.95C140.487 235.177 137.943 237.258 135.28 239.18C132.211 238.84 123.401 237.76 123.401 237.76L131.291 241.89C130.351 242.48 129.411 243.05 128.481 243.58C126.781 242.72 123.161 240.93 123.161 240.93L126.271 244.78C118.392 248.86 111.362 250.25 108.682 246.78Z" fill="#E27588"/>
<path fill-rule="evenodd" clip-rule="evenodd" d="M147.369 218.91L93.2834 258C93.1941 258.056 93.0884 258.081 92.9834 258.07C92.8981 258.071 92.8144 258.047 92.7434 258C92.5713 257.905 92.4728 257.716 92.4934 257.52L96.3931 215.33C96.4033 215.197 96.4661 215.074 96.5674 214.988C96.6688 214.901 96.8004 214.859 96.9331 214.87C97.066 214.883 97.1883 214.948 97.2728 215.051C97.3573 215.154 97.397 215.287 97.3831 215.42L93.5833 256.52L146.79 218.1C147.013 217.968 147.3 218.028 147.451 218.239C147.602 218.45 147.566 218.741 147.369 218.91ZM107.682 241C109.682 233.47 121.741 224 132.361 217.86C124.851 229.91 114.812 238.5 107.682 241Z" fill="#D93954"/>
<path fill-rule="evenodd" clip-rule="evenodd" d="M131.74 198.26C132.151 195.568 132.395 192.853 132.47 190.13C132.79 177.57 125.871 178.74 117.801 188.59C113.091 194.612 109.142 201.192 106.042 208.18L110.812 219.24L104.362 212.04C98.9128 225.23 96.573 238.29 102.823 240.78C110.032 243.59 126.271 225.23 131.101 201.78C130.831 201.83 120.671 204.69 120.461 204.78C120.251 204.87 131.66 198.26 131.74 198.26ZM126.291 260.12C120.681 259.91 116.342 258.49 115.992 255.77C115.182 249.65 128.991 247.64 138.58 247.93L136.71 251.71L141.33 248.08C142.07 248.15 142.77 248.22 143.41 248.32C147.979 248.99 150.159 250.79 150.029 252.25C149.899 253.71 148.209 256.75 138.12 258.99C136.38 259.37 134.621 259.657 132.85 259.85L127.481 256.64L130.601 260.05C129.961 260.13 129.321 260.13 128.701 260.13L124.471 256.33L126.291 260.12Z" fill="#E998A6"/>
<path fill-rule="evenodd" clip-rule="evenodd" d="M125.361 215.253C125.483 215.302 125.58 215.398 125.631 215.52C125.689 215.646 125.691 215.792 125.636 215.919C125.58 216.047 125.473 216.146 125.341 216.19L112.342 221.81L111.772 223L123.761 217.79C123.928 217.688 124.139 217.693 124.301 217.803C124.463 217.913 124.546 218.107 124.514 218.299C124.482 218.492 124.34 218.649 124.151 218.7L110.972 224.4C110.132 226.106 109.305 227.773 108.492 229.4C112.452 227.86 117.541 225.85 118.091 225.57C118.206 225.475 118.358 225.442 118.501 225.48C118.769 225.544 118.934 225.812 118.871 226.08C118.871 226.43 118.871 226.48 107.872 230.74C107.744 230.993 107.616 231.246 107.49 231.497C107.232 232.008 106.977 232.513 106.722 233.01C106.726 233.046 106.726 233.083 106.722 233.12C99.3728 247.68 93.4832 257.65 93.3732 257.82C93.2844 257.973 93.1208 258.069 92.9432 258.07C92.855 258.07 92.7684 258.046 92.6933 258C92.4557 257.857 92.3758 257.55 92.5133 257.31C92.6233 257.14 98.4128 247.26 105.762 232.81C105.302 231.71 103.083 226.84 101.573 223.58C101.459 223.326 101.57 223.027 101.823 222.91C102.074 222.797 102.369 222.909 102.483 223.16L102.486 223.166C102.837 223.921 105.345 229.306 106.342 231.65C109.752 224.9 113.462 217.21 117.081 209.08L112.252 199.2C112.193 199.08 112.185 198.943 112.228 198.817C112.271 198.691 112.362 198.588 112.482 198.53C112.731 198.413 113.027 198.515 113.152 198.76L117.611 207.89L118.211 206.51L114.972 199.34C114.885 199.175 114.897 198.976 115.002 198.823C115.108 198.67 115.29 198.588 115.474 198.61C115.659 198.633 115.816 198.756 115.882 198.93L118.751 205.27C120.661 200.86 122.521 196.35 124.281 191.81C124.336 191.63 124.486 191.496 124.67 191.463C124.855 191.43 125.042 191.502 125.156 191.651C125.27 191.8 125.291 192 125.211 192.17C122.981 197.95 120.571 203.69 118.111 209.22V209.29C116.412 213.12 114.692 216.85 112.982 220.43L124.981 215.26C125.101 215.207 125.238 215.204 125.361 215.253ZM102.923 256.89C102.962 257.136 103.173 257.318 103.422 257.32L103.492 257.33C103.642 257.3 118.901 255.11 141.83 253.77C142.008 253.759 142.168 253.654 142.248 253.494C142.328 253.334 142.316 253.143 142.218 252.994C142.119 252.844 141.948 252.759 141.77 252.77C121.027 253.979 106.55 255.906 103.819 256.269C103.525 256.309 103.367 256.33 103.352 256.33C103.079 256.366 102.887 256.616 102.923 256.89Z" fill="#E27588"/>
<path d="M30.3378 257.88H33.7475C34.2923 257.877 34.754 257.478 34.8374 256.94C36.1886 247.356 36.5771 237.661 35.9974 228H30.3178C30.899 237.568 30.544 247.171 29.2579 256.67C29.2238 256.978 29.322 257.285 29.528 257.516C29.734 257.747 30.0284 257.879 30.3378 257.88Z" fill="#9AA4BE"/>
<path d="M35.9975 228H30.3179C30.4779 231.293 30.5579 234.583 30.5579 237.87L36.1575 240.64C36.2374 236.38 36.1575 232.17 35.9975 228Z" fill="#62719A"/>
<path d="M57.2359 237.89C56.166 229.64 49.6665 208.47 42.147 186.44C39.2272 184.313 36.3374 182.186 33.4776 180.06L40.9971 182.88C37.8173 172.88 34.0876 163.02 33.2377 153.88C32.7077 148.13 30.3579 152.23 29.5179 154.03C24.3983 164 18.1987 185.82 15.269 207L27.4681 202C23.0684 205.75 18.6887 209.49 14.279 213.23C12.7291 223.03 11.1193 232.41 9.51937 240.08C9.1794 241.72 9.37938 244.02 12.3592 242.13C17.7488 238.71 30.6479 231.66 33.7176 230.05C33.7176 230.05 43.7169 235.1 54.4861 240.05C55.1557 240.331 55.9253 240.227 56.4966 239.779C57.0678 239.33 57.3508 238.607 57.2359 237.89Z" fill="#FFB600"/>
<path d="M33.7175 230.54V230.54C33.5847 230.529 33.4615 230.467 33.3752 230.365C33.2888 230.264 33.2465 230.132 33.2575 230C34.0075 221.16 33.0675 213 31.6376 200.68C31.2677 197.46 30.8577 193.93 30.4377 190.02C29.4869 179.504 29.4869 168.925 30.4377 158.41C30.4653 158.133 30.7116 157.932 30.9877 157.96C31.2638 157.987 31.4653 158.233 31.4377 158.51C30.4927 168.955 30.4927 179.464 31.4377 189.91C31.8576 193.82 32.2676 197.35 32.6376 200.56C33.9975 213 34.9974 221.14 34.2175 230.08C34.2014 230.342 33.9806 230.545 33.7175 230.54Z" fill="#FF9100"/>
<path d="M147.049 159.18C147.049 159.18 144.719 163.45 140.89 164.05C137.06 164.65 116.552 162.62 116.552 162.62C119.551 160.11 117.221 149.95 117.221 149.95H113.602C113.602 149.95 116.392 159.45 111.392 161.71C106.392 163.97 98.2228 166.79 98.2228 166.79C97.0529 161.29 96.223 151.29 95.3931 151.29C94.4731 151.428 93.5755 151.687 92.7232 152.06C92.8832 156.16 92.5333 171.43 92.2033 177.77C91.8933 183.67 85.7537 188.14 71.7748 197.34C68.195 159.82 85.9737 136.34 111.222 109.95L114.722 98.29C114.722 98.29 95.723 118.62 91.7233 118.86C87.7236 119.1 74.7245 102.95 74.7245 102.95L71.7248 104.12C82.724 120.79 85.2238 120.31 82.294 125.45C77.7543 133.45 51.0562 133.95 48.0565 132.96C45.0567 131.97 31.8976 121.45 31.8976 121.45L29.7278 122.45C29.7278 122.45 41.5669 137.1 50.5563 137.88C72.1147 139.73 75.0745 130.32 61.0555 161.62C45.5966 196.14 39.3971 250.09 72.1647 267.83C86.7337 267.83 117.611 267.56 128.731 267.56C135.39 267.56 135.9 263.19 131.93 256.79C119.191 236.26 87.0237 238.92 75.6745 213.79C75.0345 205.91 90.6734 194.61 96.8229 189.11C102.973 183.61 98.7028 174.05 104.702 170.92C112.422 166.92 131.39 168.65 138.7 168.39C146.009 168.13 149.529 159.21 149.529 159.21L147.049 159.18Z" fill="#132043"/>
<path fill-rule="evenodd" clip-rule="evenodd" d="M83.8939 123.25L83.1839 123.59C83.9531 121.328 82.8695 119.848 79.4013 115.11C77.5493 112.581 75.0175 109.122 71.7248 104.12L74.7245 102.95C74.7245 102.95 87.7236 119.1 91.7233 118.86C95.723 118.62 114.722 98.29 114.722 98.29L111.222 110C109.752 111.54 108.302 113.06 106.882 114.59C102.993 115.36 95.873 117.54 83.8939 123.25ZM31.8976 121.45L29.7278 122.45C33.4056 126.905 37.6168 130.892 42.2669 134.32C43.7568 133.73 45.2667 133.08 46.8365 132.37C42.4969 129.91 31.8976 121.45 31.8976 121.45ZM102.163 260.8C102.329 262.052 102.188 263.325 101.753 264.51C101.285 266.115 99.9693 267.33 98.3328 267.67L98.2431 267.671C88.4439 267.73 78.6744 267.79 72.1647 267.79C62.6654 262.65 56.4459 254.46 52.7761 244.58H52.8361C53.5962 243.974 54.2067 243.116 54.8195 242.254C55.6418 241.099 56.4683 239.937 57.6658 239.37C58.8677 238.801 60.3078 238.87 61.7311 238.938H61.7312C62.7826 238.988 63.8249 239.038 64.7553 238.83C65.6888 238.621 66.6042 238.121 67.5286 237.617C68.7724 236.938 70.0325 236.25 71.3748 236.25C72.7223 236.25 73.9636 236.927 75.2058 237.604C76.1206 238.102 77.0359 238.601 77.9943 238.83C78.9779 239.065 80.0525 239.008 81.124 238.952C82.5142 238.878 83.8992 238.805 85.0738 239.37C86.2628 239.942 87.089 241.095 87.9131 242.245C88.5306 243.107 89.1468 243.968 89.9134 244.58C90.6838 245.196 91.6672 245.611 92.6508 246.026C93.9524 246.576 95.2542 247.126 96.063 248.14C96.8699 249.152 97.1149 250.541 97.3596 251.928C97.5455 252.982 97.7311 254.035 98.1629 254.92C98.5873 255.79 99.2801 256.572 99.9761 257.357C100.92 258.422 101.869 259.494 102.163 260.8ZM71.4148 192.31L67.4151 199.56C67.3415 199.675 67.362 199.827 67.4635 199.918C67.5651 200.01 67.7179 200.015 67.825 199.93C68.685 199.35 70.0749 198.43 71.7648 197.35C71.5948 195.64 71.4948 193.96 71.4148 192.35V192.31ZM75.6754 213.796L75.6745 213.77L75.6545 213.75L75.6754 213.796ZM75.6754 213.796C75.8079 217.706 76.5658 221.22 77.1844 221.24C77.4145 221.247 77.595 220.858 77.7883 220.441C78.1158 219.735 78.48 218.949 79.1842 219.88C77.8169 217.973 76.6415 215.935 75.6754 213.796ZM97.0729 159.77C95.553 159.68 94.0731 159.64 92.7232 159.65C92.7232 158.433 92.7313 157.284 92.7385 156.246V156.246V156.246V156.246C92.7511 154.443 92.7613 152.974 92.7232 152.06C93.5755 151.687 94.4731 151.428 95.3931 151.29C95.8822 151.29 96.3714 154.775 96.9313 158.763C96.978 159.096 97.0252 159.432 97.0729 159.77ZM138.72 168.38H135.5C131.32 167.52 126.781 166.34 121.991 164.9C117.911 163.63 114.272 162.66 110.992 161.9L111.392 161.73C116.392 159.47 113.602 149.97 113.602 149.97H117.221C117.221 149.97 119.551 160.13 116.552 162.64C116.552 162.64 137.06 164.67 140.89 164.07C144.719 163.47 147.049 159.2 147.049 159.2H149.549C149.549 159.2 146.049 168.12 138.72 168.38ZM96.703 177.58C97.1563 177.659 97.779 177.508 98.4069 177.355C99.7545 177.028 101.125 176.695 100.893 178.618L100.883 178.7C100.884 178.688 100.886 178.676 100.888 178.664C100.89 178.649 100.891 178.633 100.893 178.618C101.321 175.341 101.836 172.388 104.702 170.89L105.352 170.58C96.703 174.15 95.3131 177.34 96.703 177.58Z" fill="#060B16"/>
<path d="M36.3974 87.2C2.89977 97.45 -3.32978 119.32 1.39988 128C7.14946 138.5 26.1481 139.8 52.3962 125C78.6443 110.2 59.3957 130.5 80.8941 120.25C102.393 110 108.142 111.1 108.142 111.1C108.142 111.1 109.142 117.95 130.891 114.95C152.639 111.95 165.588 112.45 181.337 117.2C197.086 121.95 208.195 111 197.886 92C187.886 73.5 175.887 75.7 172.428 64.47C170.598 58.61 171.888 48.47 162.428 40.95C150.249 31.25 125.431 26.84 87.2737 55.5C87.2437 55.45 45.7667 49.34 36.3974 87.2Z" fill="#D93954"/>
<path fill-rule="evenodd" clip-rule="evenodd" d="M95.993 57.0498C93.1211 56.312 90.2007 55.7774 87.2537 55.4498C88.4128 54.5904 89.5319 53.7887 90.6407 52.9944C91.1963 52.5965 91.7492 52.2004 92.3033 51.7998L96.383 56.3898C96.5032 56.5196 96.5239 56.7129 96.4339 56.8651C96.3439 57.0174 96.1647 57.0925 95.993 57.0498ZM35.1274 93.4498C35.426 91.3431 35.8501 89.256 36.3973 87.1998C35.0574 87.6098 33.7875 88.0498 32.5376 88.4898L34.2375 93.4898C34.2989 93.6905 34.4883 93.8241 34.6979 93.8147C34.9076 93.8053 35.0842 93.6552 35.1274 93.4498ZM169.443 76.5853C169.297 76.4285 169.242 76.207 169.298 75.9998C170.158 73.0898 172.478 63.7698 170.578 54.6098C170.941 56.2442 171.18 57.8315 171.405 59.3195C171.688 61.1911 171.946 62.9058 172.398 64.3598C173.214 67.0976 174.821 69.5329 177.017 71.3598C176.447 74.9898 172.018 76.3298 170.018 76.7698C169.807 76.8119 169.59 76.7421 169.443 76.5853Z" fill="#C22031"/>
<path d="M112.992 128.38C125.561 127.89 132.61 139.03 139.16 143.38C147.239 148.8 157.579 150.54 157.489 155.54C157.369 162.82 140.74 163.29 119.991 158.66C99.2428 154.03 87.7336 155.66 77.4543 157.54C65.2252 159.83 84.9938 129.48 112.992 128.38Z" fill="#E998A6"/>
<path d="M124.351 147.25C120.221 147.83 129.931 153.17 146.429 147.5L146.609 147.44C144.033 146.301 141.549 144.964 139.18 143.44C135.98 141.3 132.66 137.55 128.641 134.32C134.05 139.56 129.101 146.59 124.351 147.25Z" fill="#E27588"/>
<path d="M93.3833 267.83C95.4184 267.825 97.2028 266.469 97.753 264.51C98.1886 263.325 98.3293 262.052 98.1629 260.8C97.653 258.53 95.1632 256.97 94.1632 254.92C93.1633 252.87 93.4833 249.92 92.0634 248.14C90.6435 246.36 87.7037 246.01 85.9138 244.58C84.124 243.15 83.154 240.37 81.0742 239.37C78.9943 238.37 76.2545 239.37 73.9947 238.83C71.7348 238.29 69.715 236.25 67.3752 236.25C65.0353 236.25 62.9455 238.34 60.7556 238.83C58.5658 239.32 55.756 238.38 53.6662 239.37C51.5763 240.36 50.6664 243.16 48.8365 244.58C47.0066 246 44.1168 246.35 42.6869 248.14C41.257 249.93 41.587 252.85 40.5771 254.93C39.5672 257.01 37.0973 258.53 36.5774 260.8C36.4052 262.052 36.5461 263.326 36.9874 264.51C37.5375 266.469 39.3219 267.825 41.357 267.83H93.3833Z" fill="#9AA4BE"/>
<path fill-rule="evenodd" clip-rule="evenodd" d="M53.2361 248.57C54.036 249.73 55.5959 252.59 53.0961 254.32C52.9686 254.387 52.8168 254.391 52.6861 254.33C50.0963 253.18 51.7362 249.88 52.5161 248.57C52.5955 248.448 52.7309 248.375 52.8761 248.375C53.0213 248.375 53.1567 248.448 53.2361 248.57ZM65.7952 250.18C63.1654 249.68 56.6958 248.94 56.3659 253.94C56.3461 254.199 56.4638 254.45 56.6758 254.6C61.0555 257.71 64.8352 253.37 66.2851 251.37C66.4368 251.157 66.4684 250.881 66.3689 250.639C66.2694 250.398 66.0527 250.224 65.7952 250.18Z" fill="#62719A"/>
<path d="M90.1335 269.9H118.991C121.781 269.9 121.651 268.49 121.131 267.9C119.821 266.4 115.362 263.08 109.862 261.2C105.336 259.69 100.425 259.803 95.973 261.52C88.6836 264.33 89.2335 268.52 90.1435 269.89L90.1335 269.9Z" fill="#62719A"/>
<path d="M94.9932 269C94.1642 267.549 92.8064 266.474 91.2035 266C90.8769 265.918 90.5384 265.895 90.2036 265.93C89.4891 267.168 89.4891 268.692 90.2036 269.93V269.93H94.2933C94.525 269.938 94.7462 269.833 94.8856 269.647C95.025 269.462 95.0652 269.22 94.9932 269Z" fill="#415385"/>
<path d="M90.7334 269.9C90.9641 269.903 91.1817 269.793 91.3169 269.606C91.4521 269.419 91.4881 269.178 91.4133 268.96C90.5843 267.509 89.2265 266.434 87.6236 265.96C85.9837 265.44 82.374 267.05 80.4541 268.63C80.2214 268.82 80.1335 269.136 80.2345 269.419C80.3355 269.702 80.6037 269.89 80.9041 269.89L90.7334 269.9Z" fill="#62719A"/>
<path fill-rule="evenodd" clip-rule="evenodd" d="M223.344 227.42L223.494 230.28L224.494 228.19C230.194 232.36 238.663 241.44 234.913 244.79C233.433 246.1 230.444 244.91 227.294 242.44L228.984 241L226.364 241.74C226.288 241.672 226.212 241.605 226.137 241.538C225.843 241.278 225.55 241.018 225.264 240.74L229.094 239.57L223.714 239.22C222.7 238.145 221.749 237.013 220.864 235.83C216.275 229.66 216.745 227.24 217.444 226.24C218.144 225.24 220.184 225.4 223.074 227.24L223.344 227.42ZM252.482 237.4C253.037 236.069 253.468 234.69 253.772 233.28C254.142 231.33 253.712 230.25 253.142 229.98C252.572 229.71 251.052 230.15 248.722 233.92C246.392 237.69 245.172 242.48 246.892 243.33C248.612 244.18 250.502 241.72 251.892 238.82L250.482 238.65L252.482 237.4Z" fill="#E27588"/>
<path fill-rule="evenodd" clip-rule="evenodd" d="M241.374 250.91C241.374 251.043 241.319 251.169 241.223 251.26H241.253C241.15 251.362 241.007 251.413 240.863 251.4C240.725 251.401 240.594 251.342 240.503 251.24L219.794 229.45C219.628 229.248 219.645 228.952 219.834 228.771C220.023 228.59 220.32 228.585 220.514 228.76L241.223 250.56C241.319 250.651 241.374 250.777 241.374 250.91ZM243.549 250.367C243.644 250.513 243.809 250.598 243.983 250.59C244.177 250.591 244.353 250.477 244.432 250.3L252.432 232.95C252.525 232.703 252.411 232.426 252.17 232.317C251.929 232.209 251.645 232.306 251.522 232.54L243.523 249.88C243.444 250.036 243.454 250.221 243.549 250.367Z" fill="#D55568"/>
<path d="M238.713 215.52C238.276 216.665 237.915 217.837 237.633 219.03C237.633 219.03 241.293 223.75 241.223 223.67C241.153 223.59 237.403 220.67 237.303 220.6C235.303 231.2 238.953 241.6 242.443 241.66C245.442 241.66 246.732 235.84 246.702 229.41L242.793 231.32L246.662 227.52C246.563 224.078 246.039 220.662 245.102 217.35C243.403 211.89 240.713 210.23 238.713 215.52Z" fill="#E998A6"/>
<path d="M243.073 250.9C242.81 250.896 242.593 250.692 242.573 250.43C242.573 250.31 241.873 238.57 241.343 217.61C241.337 217.476 241.386 217.345 241.478 217.247C241.571 217.149 241.698 217.093 241.833 217.09C241.965 217.087 242.093 217.137 242.189 217.229C242.285 217.321 242.34 217.447 242.343 217.58C242.873 238.53 243.573 250.25 243.573 250.37C243.581 250.503 243.536 250.633 243.448 250.733C243.359 250.832 243.235 250.892 243.103 250.9H243.073Z" fill="#E27588"/>
<path d="M256.522 253.08C256.866 253.086 257.178 252.875 257.301 252.553C257.424 252.231 257.332 251.866 257.072 251.64C253.632 248.58 246.422 245.25 243.223 246.26C240.303 247.18 236.973 249.61 236.103 251.97C236.008 252.223 236.042 252.506 236.196 252.728C236.35 252.95 236.603 253.081 236.873 253.08H256.522Z" fill="#62719A"/>
<path d="M361.804 251.34H365.074C365.467 251.339 365.799 251.049 365.854 250.66C366.852 242.788 367.113 234.84 366.634 226.92H361.784C362.264 234.77 362.013 242.647 361.034 250.45C361.002 250.673 361.069 250.9 361.216 251.07C361.364 251.241 361.578 251.339 361.804 251.34V251.34Z" fill="#9AA4BE"/>
<path d="M366.634 226.92H361.784C361.904 229.22 361.964 231.52 361.984 233.83L366.834 236.18C366.864 233.09 366.784 230 366.634 226.92Z" fill="#62719A"/>
<path d="M384.972 235.46C384.052 228.37 378.473 210.16 371.973 191.21C369.467 189.39 366.984 187.564 364.524 185.73L370.993 188.16C368.346 179.973 366.12 171.655 364.324 163.24C364.024 161.74 361.844 161.82 361.124 163.37C356.704 171.87 351.375 190.68 348.855 208.92L359.354 204.59C355.564 207.81 351.795 211.03 348.005 214.24C346.675 222.67 345.285 230.74 343.915 237.34C343.776 237.978 344.028 238.638 344.558 239.021C345.088 239.403 345.794 239.434 346.355 239.1C351.775 236.1 362.084 230.1 364.724 228.71C364.724 228.71 373.283 233.05 382.583 237.29C383.156 237.564 383.833 237.493 384.338 237.107C384.842 236.721 385.087 236.085 384.972 235.46V235.46Z" fill="#FFB600"/>
<path d="M364.664 229.61V229.61C364.386 229.593 364.172 229.358 364.184 229.08C364.594 221.96 363.864 215.4 362.744 205.47C362.454 202.88 362.134 200.05 361.794 196.9C361.028 188.438 360.907 179.93 361.434 171.45C361.447 171.271 361.553 171.113 361.714 171.034C361.875 170.956 362.066 170.969 362.214 171.069C362.363 171.169 362.446 171.341 362.434 171.52C361.907 179.94 362.028 188.388 362.794 196.79C363.124 199.94 363.444 202.79 363.734 205.36C364.864 215.36 365.604 221.94 365.184 229.14C365.168 229.412 364.936 229.621 364.664 229.61Z" fill="#FF9100"/>
<path d="M294.269 194C294.269 194 289.339 198.92 282.66 206C283.073 202.384 284.087 198.862 285.659 195.58C288.059 190.99 281.6 200.14 281.6 200.14C281.6 200.14 267.601 225.95 270.511 250.33C270.586 250.93 271.096 251.38 271.7 251.38H277.87C278.206 251.359 278.518 251.197 278.729 250.935C278.94 250.672 279.031 250.333 278.98 250C278.4 243.14 274.57 229.05 278.6 218.42C282.63 207.79 291.599 199.22 296.939 195.29L294.269 194Z" fill="#9AA4BE"/>
<path d="M296.979 195.33L294.269 194C294.269 194 289.339 198.92 282.66 206C283.073 202.384 284.087 198.862 285.66 195.58C288.059 190.99 281.6 200.14 281.6 200.14C279.116 204.972 277.003 209.987 275.28 215.14C277.454 214.321 279.58 213.383 281.65 212.33C285.615 205.728 290.82 199.955 296.979 195.33Z" fill="#62719A"/>
<path d="M302.898 172.42C293.239 162.42 280.13 168.67 274.73 174.99C269.331 181.31 260.091 177.91 261.351 187.72C261.351 187.72 245.582 185.97 238.763 194.93C234.543 200.47 237.223 207.38 242.912 211.29C247.412 214.39 254.292 215.29 261.831 214.73C268.591 214.26 276.07 211.3 284.1 206.53C294.459 200.38 299.418 202.62 305.478 203.18C318.837 204.41 326.476 200.68 330.666 197.6C334.506 194.79 335.746 189.78 335.146 187.41C334.246 183.82 331.146 180.99 324.147 179.86C314.547 178.3 307.088 176.78 302.898 172.42Z" fill="#E27588"/>
<path fill-rule="evenodd" clip-rule="evenodd" d="M302.414 178.129C302.443 178.085 302.472 178.042 302.498 178C303.238 176.9 304.688 174.24 302.098 171.65C302.368 171.89 302.628 172.15 302.888 172.42C305.012 174.468 307.593 175.98 310.418 176.83C308.168 178.275 305.586 179.122 302.918 179.29C301.681 179.235 302.09 178.617 302.414 178.129ZM257.701 187.58L261.611 190.47C261.73 190.562 261.896 190.559 262.012 190.463C262.127 190.367 262.16 190.204 262.091 190.07C261.739 189.324 261.49 188.534 261.351 187.72C260.138 187.608 258.92 187.562 257.701 187.58Z" fill="#D93954"/>
<path d="M295.829 253.08C296.413 253.085 296.941 252.732 297.159 252.19L297.249 251.97C297.689 251.06 298.809 250.36 299.039 249.35C299.269 248.34 298.559 247.26 298.559 246.21C298.559 245.16 299.259 244.05 299.039 243.07C298.819 242.09 297.689 241.36 297.249 240.45C296.809 239.54 296.949 238.22 296.309 237.45C295.669 236.68 294.359 236.5 293.559 235.86C292.759 235.22 292.329 233.98 291.409 233.53C290.489 233.08 289.249 233.53 288.239 233.3C287.229 233.07 286.329 232.14 285.29 232.14C284.25 232.14 283.29 233.07 282.29 233.3C281.29 233.53 280.04 233.09 279.13 233.54C278.22 233.99 277.76 235.22 276.97 235.86C276.18 236.5 274.86 236.65 274.22 237.45C273.58 238.25 273.73 239.55 273.28 240.45C273.057 240.851 272.782 241.221 272.46 241.55C272.171 241.065 271.765 240.66 271.281 240.37C270.361 239.93 269.121 240.37 268.111 240.13C267.101 239.89 266.201 238.98 265.161 238.98C264.121 238.98 263.161 239.91 262.161 240.13C261.161 240.35 259.911 239.93 259.001 240.37C258.091 240.81 257.642 242.06 256.842 242.7C256.042 243.34 254.732 243.49 254.092 244.29C253.452 245.09 253.602 246.39 253.152 247.29C252.702 248.19 251.602 248.9 251.372 249.91C251.308 250.614 251.411 251.323 251.672 251.98C251.836 252.612 252.409 253.052 253.062 253.05L295.829 253.08Z" fill="#FFB600"/>
<path fill-rule="evenodd" clip-rule="evenodd" d="M281.28 241.56H281.34C283.2 240.17 281.98 238 281.33 237.14C281.269 237.043 281.164 236.984 281.05 236.984C280.936 236.984 280.83 237.043 280.77 237.14C280.418 237.766 280.159 238.439 280 239.14C279.486 238.931 278.943 238.806 278.39 238.77C278.288 238.758 278.187 238.802 278.126 238.884C278.064 238.966 278.05 239.075 278.09 239.17C278.46 240.16 279.54 242.47 281.28 241.56ZM275.14 241.01C275.75 240.74 277.2 240.25 277.8 241.56V241.53C277.836 241.601 277.828 241.686 277.78 241.75C277.03 242.86 275.63 241.82 275.09 241.35C275.041 241.303 275.017 241.234 275.027 241.167C275.037 241.099 275.079 241.04 275.14 241.01Z" fill="#FF9100"/>
<path d="M330.386 257C329.466 249 329.116 224.2 329.116 216.17H322.977C322.977 224.28 323.337 249.17 324.277 257.23C324.319 257.751 324.754 258.152 325.277 258.15H329.276C329.588 258.188 329.9 258.078 330.118 257.852C330.337 257.626 330.436 257.31 330.386 257Z" fill="#132043"/>
<path d="M329.116 216.17H322.977C322.977 218.46 322.977 222.09 323.067 226.3L329.226 229.04C329.156 223.68 329.116 218.93 329.116 216.17Z" fill="#060B16"/>
<path d="M352.255 231.85C349.935 222.63 346.975 209.09 346.255 205.2C346.063 204.517 345.744 203.875 345.315 203.31C341.845 198.03 343.005 199.76 340.455 195.99C341.549 196.396 342.668 196.73 343.805 196.99C344.565 197.11 345.335 196.82 345.235 196.04C344.235 188.04 343.235 179.64 343.035 178.04C343.014 177.866 342.941 177.702 342.825 177.57C339.985 174.476 337.129 171.383 334.256 168.29L340.465 170.18C340.781 170.253 341.112 170.169 341.354 169.954C341.596 169.74 341.72 169.421 341.685 169.1C339.376 154.37 332.396 134.05 328.826 126.95C328.486 126.2 327.416 126.23 327.316 126.95C325.057 149.45 308.488 190.62 305.608 200.06C305.492 200.398 305.593 200.774 305.863 201.009C306.133 201.243 306.519 201.291 306.838 201.13L319.597 195.13C314.097 199.95 308.598 204.78 303.308 209.6C302.577 210.267 302.085 211.156 301.908 212.13C300.788 218.65 299.908 225.13 299.398 231.69C299.372 232.036 299.527 232.372 299.809 232.576C300.09 232.78 300.457 232.823 300.778 232.69C309.178 228.456 317.73 224.226 326.436 220C333.236 224.84 346.485 230.79 351.085 232.77C351.37 232.898 351.702 232.857 351.948 232.664C352.194 232.471 352.312 232.157 352.255 231.85Z" fill="#D93954"/>
<path d="M326.396 220.63C326.134 220.625 325.917 220.422 325.897 220.16C325.177 210.16 326.056 201 327.396 187.16C327.736 183.56 328.116 179.62 328.516 175.24C329.39 163.528 329.373 151.768 328.466 140.06C328.452 139.927 328.492 139.794 328.577 139.691C328.661 139.587 328.783 139.522 328.916 139.51C329.049 139.498 329.181 139.541 329.282 139.627C329.383 139.714 329.446 139.837 329.456 139.97C330.358 151.739 330.358 163.56 329.456 175.33C329.066 179.71 328.686 183.65 328.336 187.26C327.006 201.08 326.126 210.26 326.846 220.12C326.857 220.251 326.815 220.382 326.728 220.482C326.642 220.581 326.518 220.642 326.386 220.65L326.396 220.63Z" fill="#C22031"/>
<path d="M368.654 258.15C369.714 258.145 370.644 257.44 370.933 256.42C371.166 255.801 371.241 255.135 371.153 254.48C370.883 253.3 369.583 252.48 369.063 251.42C368.544 250.36 368.714 248.81 367.964 247.88C367.214 246.95 365.694 246.77 364.754 246.02C363.814 245.27 363.324 243.83 362.234 243.31C361.144 242.79 359.724 243.31 358.544 243.03C357.364 242.75 356.314 241.68 355.084 241.68C353.855 241.68 352.785 242.77 351.635 243.03C350.485 243.29 349.005 242.79 347.935 243.31C346.865 243.83 346.345 245.31 345.415 246.02C344.485 246.73 342.955 246.94 342.205 247.88C341.455 248.82 341.635 250.34 341.115 251.42C340.596 252.5 339.296 253.3 339.026 254.48C338.938 255.135 339.013 255.801 339.246 256.42C339.529 257.444 340.463 258.152 341.525 258.15H368.654Z" fill="#E27588"/>
</svg>
