<svg width="117" height="89" viewBox="0 0 117 89" fill="none" xmlns="http://www.w3.org/2000/svg">
<mask id="mask0_1250_2817" style="mask-type:alpha" maskUnits="userSpaceOnUse" x="0" y="0" width="117" height="89">
<path d="M0 0.00378418H116.798V88.9752H0V0.00378418Z" fill="white"/>
</mask>
<g mask="url(#mask0_1250_2817)">
<path fill-rule="evenodd" clip-rule="evenodd" d="M110.849 38.6153H115.146V30.2294H110.849V38.6153ZM99.5857 38.6153H109.198V30.2294H99.5857V38.6153ZM73.6792 4.69305H93.1982V1.64594H73.6792V4.69305ZM94.8504 11.6686H97.9336V6.3352H94.8504V11.6686ZM94.8504 28.5869H97.9336V13.3107H94.8504V28.5869ZM94.8504 38.6153H97.9336V30.2294H94.8504V38.6153ZM86.3647 38.6153H93.1982V30.2294H86.3647V38.6153ZM73.6792 38.6153H84.7134V30.2294H73.6792V38.6153ZM73.6792 13.3111L73.6813 22.7402L86.3647 22.7398V28.5869H93.1982V13.3111H73.6792ZM73.6792 11.6686H93.1982V6.3352H73.6792V11.6686ZM73.6792 28.5869H84.7134V24.3823H73.6792V28.5869ZM99.5857 28.5869H109.198V13.3107H99.5857V28.5869ZM116.798 28.5869V40.2574H72.0274V0.00378418H94.8504V4.69305H99.5857V11.6686H110.849V28.5869H116.798ZM50.9437 45.4981H72.0274V40.2574H50.9437V45.4981ZM10.612 79.3218C12.0189 79.4824 13.3838 79.5321 14.2045 79.5321C21.4585 79.5321 26.0619 74.9165 26.0619 68.0561C26.0619 62.1216 22.6118 57.8356 17.9376 57.8356C15.9137 57.8356 14.558 58.2487 10.612 60.583V57.7263H8.42567L0 60.2709V62.3224H3.48876V86.2431L0.350167 87.0193V88.9996H14.1229L14.1224 87.0193L10.612 86.2431V79.3218ZM10.612 62.5435C11.8566 62.3932 12.4736 62.3224 13.0611 62.3224C16.5915 62.3224 18.5039 64.655 18.5039 69.0417C18.5039 74.2236 16.1664 76.9267 11.8053 76.9267C11.441 76.9267 11.1883 76.9267 10.612 76.8998V62.5435ZM58.6732 69.0417C61.94 64.9477 63.0934 63.2969 63.0934 61.2863C63.0934 59.2848 61.4954 57.6737 59.3602 57.6737C58.0457 57.6737 56.8616 58.2909 56.2837 58.9325V67.2721L50.9312 74.3623V58.1978H45.8423L37.3838 72.1406V58.1978H34.4592L26.7805 60.0589V62.0107L30.9688 62.4334V79.5321H36.3828L44.4962 66.2761V79.5321H50.4249L58.6732 69.0417ZM76.6521 59.9981C73.0088 60.583 71.1464 63.2588 71.1464 67.9671C71.1464 72.7048 73.6276 75.8728 77.4315 75.8728C79.2015 75.8728 80.8095 75.2878 84.19 73.6395V77.4719C80.1325 79.3218 77.7442 79.8943 74.4753 79.8943C70.9357 79.8943 68.4462 78.9596 66.4127 76.8998C64.3283 74.8271 63.2862 72.0892 63.2862 69.0417C63.2862 62.2611 68.3351 57.6737 75.7102 57.6737C80.608 57.6737 83.9769 59.8983 83.9769 63.166C83.9769 65.2698 82.4096 66.7178 80.0825 66.7178C78.8888 66.7178 77.907 66.4065 76.6521 65.6821V59.9981Z" fill="#252525"/>
</g>
</svg>
